<svg width="150" height="30" viewBox="0 0 150 30" fill="none" xmlns="http://www.w3.org/2000/svg">
<path d="M2.436 29C1.908 29 1.464 28.82 1.104 28.46C0.768 28.1 0.6 27.656 0.6 27.128V2.756C0.6 2.228 0.78 1.784 1.14 1.424C1.5 1.064 1.932 0.883999 2.436 0.883999C2.964 0.883999 3.408 1.064 3.768 1.424C4.128 1.784 4.308 2.228 4.308 2.756V25.256H17.34C17.868 25.256 18.312 25.436 18.672 25.796C19.032 26.156 19.212 26.6 19.212 27.128C19.212 27.656 19.032 28.1 18.672 28.46C18.312 28.82 17.868 29 17.34 29H2.436ZM31.5457 29.144C29.7937 29.144 28.2217 28.712 26.8297 27.848C25.4377 26.96 24.3337 25.772 23.5177 24.284C22.7257 22.772 22.3297 21.068 22.3297 19.172C22.3297 17.276 22.7617 15.572 23.6257 14.06C24.5137 12.548 25.7017 11.36 27.1897 10.496C28.7017 9.608 30.3937 9.164 32.2657 9.164C34.1377 9.164 35.8177 9.608 37.3057 10.496C38.7937 11.36 39.9697 12.548 40.8337 14.06C41.7217 15.572 42.1657 17.276 42.1657 19.172V27.2C42.1657 27.728 41.9857 28.172 41.6257 28.532C41.2897 28.868 40.8577 29.036 40.3297 29.036C39.8017 29.036 39.3577 28.868 38.9977 28.532C38.6617 28.172 38.4937 27.728 38.4937 27.2V25.868C37.6537 26.876 36.6337 27.68 35.4337 28.28C34.2577 28.856 32.9617 29.144 31.5457 29.144ZM32.2657 25.904C33.4897 25.904 34.5817 25.616 35.5417 25.04C36.5017 24.44 37.2577 23.636 37.8097 22.628C38.3617 21.596 38.6377 20.444 38.6377 19.172C38.6377 17.876 38.3617 16.724 37.8097 15.716C37.2577 14.684 36.5017 13.88 35.5417 13.304C34.5817 12.704 33.4897 12.404 32.2657 12.404C31.0657 12.404 29.9737 12.704 28.9897 13.304C28.0297 13.88 27.2617 14.684 26.6857 15.716C26.1337 16.724 25.8577 17.876 25.8577 19.172C25.8577 20.444 26.1337 21.596 26.6857 22.628C27.2617 23.636 28.0297 24.44 28.9897 25.04C29.9737 25.616 31.0657 25.904 32.2657 25.904ZM55.9106 29.18C54.2546 29.18 52.7666 28.832 51.4466 28.136C50.1506 27.416 49.1186 26.372 48.3506 25.004C47.6066 23.636 47.2346 21.956 47.2346 19.964V11.108C47.2346 10.58 47.4026 10.148 47.7386 9.812C48.0986 9.452 48.5426 9.272 49.0706 9.272C49.5986 9.272 50.0306 9.452 50.3666 9.812C50.7266 10.148 50.9066 10.58 50.9066 11.108V19.964C50.9066 22.004 51.4466 23.504 52.5266 24.464C53.6306 25.4 54.9986 25.868 56.6306 25.868C57.6626 25.868 58.5746 25.664 59.3666 25.256C60.1826 24.848 60.8306 24.296 61.3106 23.6C61.7906 22.904 62.0306 22.124 62.0306 21.26V11.108C62.0306 10.556 62.1986 10.112 62.5346 9.776C62.8946 9.44 63.3386 9.272 63.8666 9.272C64.4186 9.272 64.8626 9.44 65.1986 9.776C65.5346 10.112 65.7026 10.556 65.7026 11.108V27.164C65.7026 27.692 65.5346 28.136 65.1986 28.496C64.8626 28.832 64.4186 29 63.8666 29C63.3386 29 62.8946 28.832 62.5346 28.496C62.1986 28.136 62.0306 27.692 62.0306 27.164V26.768C61.2866 27.512 60.3866 28.1 59.3306 28.532C58.2746 28.964 57.1346 29.18 55.9106 29.18ZM73.9697 29C72.7697 29 72.1697 28.4 72.1697 27.2V11.108C72.1697 9.908 72.7697 9.308 73.9697 9.308C75.1697 9.308 75.7697 9.908 75.7697 11.108V11.792C76.4897 10.952 77.3657 10.292 78.3977 9.812C79.4537 9.332 80.5937 9.092 81.8177 9.092C83.2577 9.092 84.3257 9.332 85.0217 9.812C85.7417 10.268 86.0177 10.82 85.8497 11.468C85.7297 11.972 85.4897 12.308 85.1297 12.476C84.7697 12.62 84.3497 12.644 83.8697 12.548C82.3337 12.236 80.9537 12.212 79.7297 12.476C78.5057 12.74 77.5337 13.232 76.8137 13.952C76.1177 14.672 75.7697 15.584 75.7697 16.688V27.2C75.7697 28.4 75.1697 29 73.9697 29ZM96.4441 29.144C94.6921 29.144 93.1201 28.712 91.7281 27.848C90.3361 26.96 89.2321 25.772 88.4161 24.284C87.6241 22.772 87.2281 21.068 87.2281 19.172C87.2281 17.276 87.6601 15.572 88.5241 14.06C89.4121 12.548 90.6001 11.36 92.0881 10.496C93.6001 9.608 95.2921 9.164 97.1641 9.164C99.0361 9.164 100.716 9.608 102.204 10.496C103.692 11.36 104.868 12.548 105.732 14.06C106.62 15.572 107.064 17.276 107.064 19.172V27.2C107.064 27.728 106.884 28.172 106.524 28.532C106.188 28.868 105.756 29.036 105.228 29.036C104.7 29.036 104.256 28.868 103.896 28.532C103.56 28.172 103.392 27.728 103.392 27.2V25.868C102.552 26.876 101.532 27.68 100.332 28.28C99.1561 28.856 97.8601 29.144 96.4441 29.144ZM97.1641 25.904C98.3881 25.904 99.4801 25.616 100.44 25.04C101.4 24.44 102.156 23.636 102.708 22.628C103.26 21.596 103.536 20.444 103.536 19.172C103.536 17.876 103.26 16.724 102.708 15.716C102.156 14.684 101.4 13.88 100.44 13.304C99.4801 12.704 98.3881 12.404 97.1641 12.404C95.9641 12.404 94.8721 12.704 93.8881 13.304C92.9281 13.88 92.1601 14.684 91.5841 15.716C91.0321 16.724 90.7561 17.876 90.7561 19.172C90.7561 20.444 91.0321 21.596 91.5841 22.628C92.1601 23.636 92.9281 24.44 93.8881 25.04C94.8721 25.616 95.9641 25.904 97.1641 25.904ZM113.573 29.576C112.901 29.576 112.313 29.336 111.809 28.856C111.329 28.352 111.089 27.764 111.089 27.092C111.089 26.396 111.329 25.808 111.809 25.328C112.313 24.824 112.901 24.572 113.573 24.572C114.269 24.572 114.857 24.824 115.337 25.328C115.817 25.808 116.057 26.396 116.057 27.092C116.057 27.764 115.817 28.352 115.337 28.856C114.857 29.336 114.269 29.576 113.573 29.576ZM129.315 29.144C127.563 29.144 125.991 28.712 124.599 27.848C123.207 26.96 122.103 25.772 121.287 24.284C120.495 22.772 120.099 21.068 120.099 19.172C120.099 17.276 120.531 15.572 121.395 14.06C122.283 12.548 123.471 11.36 124.959 10.496C126.471 9.608 128.163 9.164 130.035 9.164C131.907 9.164 133.587 9.608 135.075 10.496C136.563 11.36 137.739 12.548 138.603 14.06C139.491 15.572 139.935 17.276 139.935 19.172V27.2C139.935 27.728 139.755 28.172 139.395 28.532C139.059 28.868 138.627 29.036 138.099 29.036C137.571 29.036 137.127 28.868 136.767 28.532C136.431 28.172 136.263 27.728 136.263 27.2V25.868C135.423 26.876 134.403 27.68 133.203 28.28C132.027 28.856 130.731 29.144 129.315 29.144ZM130.035 25.904C131.259 25.904 132.351 25.616 133.311 25.04C134.271 24.44 135.027 23.636 135.579 22.628C136.131 21.596 136.407 20.444 136.407 19.172C136.407 17.876 136.131 16.724 135.579 15.716C135.027 14.684 134.271 13.88 133.311 13.304C132.351 12.704 131.259 12.404 130.035 12.404C128.835 12.404 127.743 12.704 126.759 13.304C125.799 13.88 125.031 14.684 124.455 15.716C123.903 16.724 123.627 17.876 123.627 19.172C123.627 20.444 123.903 21.596 124.455 22.628C125.031 23.636 125.799 24.44 126.759 25.04C127.743 25.616 128.835 25.904 130.035 25.904ZM147.596 29C147.068 29 146.624 28.832 146.264 28.496C145.928 28.136 145.76 27.692 145.76 27.164V11.144C145.76 10.592 145.928 10.148 146.264 9.812C146.624 9.476 147.068 9.308 147.596 9.308C148.148 9.308 148.592 9.476 148.928 9.812C149.264 10.148 149.432 10.592 149.432 11.144V27.164C149.432 27.692 149.264 28.136 148.928 28.496C148.592 28.832 148.148 29 147.596 29ZM147.596 6.104C146.948 6.104 146.384 5.876 145.904 5.42C145.448 4.94 145.22 4.376 145.22 3.728C145.22 3.08 145.448 2.528 145.904 2.072C146.384 1.592 146.948 1.352 147.596 1.352C148.244 1.352 148.796 1.592 149.252 2.072C149.732 2.528 149.972 3.08 149.972 3.728C149.972 4.376 149.732 4.94 149.252 5.42C148.796 5.876 148.244 6.104 147.596 6.104Z" fill="#218380"/>
</svg>
