<svg width="84" height="79" viewBox="0 0 84 79" fill="none" xmlns="http://www.w3.org/2000/svg">
<path d="M0 41.6159C0 40.1801 0 38.75 0 37.3142C0.0615385 36.8201 0.0615385 36.326 0.08 35.8319C0.123077 34.4135 0.381538 33.03 0.676923 31.6465C1.34154 28.5597 2.4 25.595 3.81538 22.7408C5.2 19.9505 6.92308 17.3579 8.94769 14.9396C9.66154 14.0909 10.4185 13.2771 11.2 12.4807C12.9046 10.7426 14.7692 9.17887 16.7754 7.75466C18.4862 6.54554 20.2892 5.47593 22.1723 4.52258C24.1846 3.50529 26.2646 2.64496 28.4246 1.9532C30.4923 1.29051 32.6092 0.784767 34.7631 0.430169C36.2092 0.191832 37.6554 0.0697571 39.12 0.0465047C39.4708 0.0406916 39.8338 0.063944 40.1846 0C41.3723 0 42.5662 0 43.7538 0C44.1169 0.0697571 44.4862 0.0465047 44.8492 0.0465047C47.6615 0.0523178 50.3877 0.569683 53.0831 1.24981C55.7785 1.92995 58.3692 2.87167 60.8554 4.05172C63.7785 5.44105 66.5046 7.12103 69.0154 9.10911C70.4185 10.2136 71.7354 11.4111 72.9723 12.6783C75.3415 15.1082 77.3723 17.7764 79.04 20.6888C80.3015 22.8919 81.3539 25.1823 82.1477 27.5715C82.9231 29.8967 83.4954 32.2626 83.7908 34.6809C83.8954 35.5238 83.8954 36.3667 83.9446 37.2096C83.9754 37.7095 83.9262 38.2094 84 38.7094C84 39.6569 84 40.6102 84 41.5578C83.9323 42.1158 83.9262 42.6797 83.9138 43.2378C83.8831 44.8073 83.5877 46.3361 83.2554 47.865C82.6892 50.4751 81.8277 52.9979 80.7138 55.4394C79.8646 57.2996 78.8615 59.0842 77.7231 60.8049C76.6215 62.4674 75.3969 64.0428 74.0492 65.531C72.8738 66.8273 71.5938 68.0248 70.2708 69.1874C68.72 70.5476 67.04 71.7568 65.28 72.8613C63.2123 74.1634 61.0338 75.2795 58.7508 76.2154C55.6308 77.4943 52.3938 78.3837 49.0462 78.9359C48.8554 78.965 48.6215 79.1045 48.4677 78.8487C48.4 78.6918 48.4062 78.5232 48.4062 78.3604C48.4062 69.4548 48.4062 60.5549 48.4062 51.6493C48.4062 51.6086 48.4062 51.6609 48.4062 51.6202C48.4123 51.0447 48.4431 51.0099 49.0523 51.004C51.7785 50.9982 54.5108 51.004 57.2369 51.004C57.3723 51.004 57.5015 51.004 57.6369 51.004C58.0923 50.9924 58.2215 50.8994 58.2892 50.4751C58.6769 48.0219 59.0831 45.5746 59.4831 43.1215C59.6246 42.2495 59.76 41.3776 59.9015 40.5056C59.9938 39.9185 59.92 39.8429 59.2923 39.8429C55.9815 39.8429 52.6646 39.8429 49.3538 39.8429C49.1692 39.8429 48.9846 39.8487 48.8 39.8371C48.4923 39.8138 48.4369 39.7557 48.4123 39.4592C48.4062 39.3895 48.4062 39.3255 48.4062 39.2558C48.4062 36.7097 48.3508 34.1577 48.4246 31.6116C48.4862 29.5305 49.3969 27.8214 51.3538 26.7286C52.3569 26.1647 53.4892 25.9206 54.6523 25.9031C56.3446 25.8741 58.0369 25.8973 59.7292 25.8973C59.8523 25.8973 59.9754 25.9031 60.0985 25.8915C60.3877 25.8624 60.4985 25.7636 60.5292 25.4904C60.5415 25.3858 60.5354 25.2753 60.5354 25.1707C60.5354 22.485 60.5354 19.8052 60.5354 17.1195C60.5354 17.0324 60.5354 16.9452 60.5354 16.858C60.5169 16.5208 60.4246 16.4045 60.0738 16.3464C59.3785 16.2243 58.6769 16.1488 57.9754 16.0732C56.7446 15.9337 55.5077 15.8232 54.2708 15.7477C51.5692 15.5849 48.88 15.5733 46.24 16.2418C43.8708 16.8463 41.7477 17.8869 39.9877 19.5145C38.24 21.1306 37.1138 23.1012 36.4246 25.3044C35.9938 26.6879 35.7662 28.0947 35.6677 29.5363C35.5815 30.7571 35.6308 31.9778 35.6246 33.1986C35.6123 35.1634 35.6246 37.134 35.6185 39.0988C35.6185 39.8487 35.6185 39.8487 34.8123 39.8487C31.8462 39.8487 28.8862 39.8487 25.92 39.8487C25.8277 39.8487 25.7354 39.8487 25.6431 39.8487C25.0708 39.8545 24.9723 39.9359 24.9723 40.4707C24.9723 43.7726 24.9723 47.0802 24.9723 50.382C24.9723 50.9285 25.0646 51.0099 25.6615 51.0099C28.72 51.0099 31.7723 51.0099 34.8308 51.0099C35.6123 51.0099 35.6185 51.0099 35.6185 51.7539C35.6185 60.5898 35.6185 69.4257 35.6185 78.2616C35.6185 78.4534 35.6369 78.6511 35.5569 78.8371C35.4954 79.0115 35.3538 78.9883 35.2062 78.9708C34.3385 78.8662 33.4892 78.6918 32.64 78.5058C29.0338 77.7268 25.5877 76.5351 22.3138 74.89C19.5508 73.5007 16.9785 71.8498 14.6031 69.9315C13.44 68.9897 12.3262 68.0073 11.2862 66.9493C9.32923 64.9613 7.57538 62.8162 6.07385 60.491C4.41231 57.9274 3.06462 55.2243 2.04923 52.3759C1.13231 49.8763 0.516923 47.3069 0.172308 44.6852C0.0861538 44.0225 0.0861538 43.3482 0.0615385 42.6797C0.0492308 42.3251 0.0492308 41.9705 0 41.6159Z" fill="white"/>
</svg>
