<svg width="75" height="75" viewBox="0 0 75 75" fill="none" xmlns="http://www.w3.org/2000/svg">
<g clip-path="url(#clip0)">
<path d="M37.4885 7.55322e-05C42.9316 7.55322e-05 48.3748 0.0123646 53.8302 7.55322e-05C58.8924 -0.0122135 63.4264 1.47476 67.3459 4.6822C70.9092 7.5947 73.3174 11.2937 74.3372 15.8038C74.7181 17.4628 74.9393 19.2078 74.9516 20.9037C75.0007 31.9639 75.0007 43.024 74.9762 54.0718C74.9516 60.5728 72.4573 65.9799 67.4934 70.1705C63.6844 73.3902 59.1996 74.9509 54.1988 74.9632C43.0668 74.9755 31.9224 75.0492 20.7904 74.9386C12.7178 74.8526 6.62345 71.1413 2.58102 64.1734C0.7994 61.1012 0.0376046 57.7094 0.0376046 54.1702C0.0376046 43.0486 -0.0484046 31.927 0.0621786 20.8177C0.135901 12.7192 3.84658 6.587 10.8379 2.54391C13.9465 0.749707 17.3746 7.55322e-05 20.9624 7.55322e-05C26.467 0.0123646 31.9839 7.55322e-05 37.4885 7.55322e-05ZM37.5007 68.3148C42.9685 68.3148 48.4362 68.3148 53.9039 68.3148C56.0787 68.3148 58.2044 67.983 60.158 67.0122C65.4906 64.3455 68.2674 59.9952 68.3043 54.0473C68.3657 43.0117 68.3289 31.9639 68.3166 20.9283C68.3166 18.8392 67.9848 16.7992 67.051 14.9067C64.397 9.53637 60.0597 6.70989 54.0759 6.67302C43.0176 6.59929 31.9593 6.64845 20.901 6.66074C17.3254 6.66074 14.1431 7.77904 11.4522 10.1631C8.1839 13.0756 6.66031 16.7623 6.66031 21.1126C6.66031 31.7058 6.66031 42.2867 6.66031 52.8798C6.66031 53.6786 6.6726 54.4774 6.73403 55.2762C7.09036 59.8969 9.25287 63.4607 13.0619 66.0414C15.4824 67.6758 18.1855 68.3271 21.0853 68.3271C26.5653 68.3148 32.033 68.3148 37.5007 68.3148Z" fill="white"/>
<path d="M37.5 56.8C26.8717 56.7877 18.1848 48.0871 18.1971 37.4816C18.2094 26.8516 26.9086 18.1633 37.5123 18.1756C48.1405 18.1878 56.8275 26.8885 56.8152 37.4939C56.8029 48.1239 48.1037 56.8123 37.5 56.8ZM37.5246 50.1393C44.5036 50.1148 50.1925 44.4126 50.1556 37.4571C50.131 30.4769 44.4299 24.7993 37.4877 24.8239C30.4964 24.8485 24.8198 30.5506 24.8566 37.5062C24.8812 44.4987 30.5701 50.1762 37.5246 50.1393Z" fill="white"/>
<path d="M57.6507 22.268C54.9721 22.2802 52.7482 20.0682 52.7482 17.4015C52.7482 14.7471 54.9353 12.5719 57.6015 12.5473C60.2555 12.5227 62.5164 14.7593 62.5041 17.4138C62.4918 20.0682 60.3047 22.2557 57.6507 22.268Z" fill="white"/>
</g>
<defs>
<clipPath id="clip0">
<rect width="75" height="75" fill="white"/>
</clipPath>
</defs>
</svg>
